<?xml version="1.0" encoding="utf-8"?>
<!-- Generator: Adobe Illustrator 18.1.1, SVG Export Plug-In . SVG Version: 6.00 Build 0)  -->
<svg version="1.1" id="Layer_1" xmlns="http://www.w3.org/2000/svg" xmlns:xlink="http://www.w3.org/1999/xlink" x="0px" y="0px"
	 viewBox="0 0 500 500" enable-background="new 0 0 500 500" xml:space="preserve">
<g>
	<g>
		<defs>
			<path id="SVGID_1_" d="M35,228.8c7.6-3.7,12.8-11.5,12.8-20.5c0-3.6-0.8-6.9-2.3-9.9l81.6-97.5v170.2
				c-7.6,3.7-12.8,11.5-12.8,20.5c0,3.3,0.7,6.4,1.9,9.2L35,397.9V228.8z M158,300.8c1.2-2.8,1.9-5.9,1.9-9.2
				c0-9-5.2-16.8-12.8-20.5V100.8l81.6,97.5c-1.4,3-2.3,6.4-2.3,9.9c0,9,5.2,16.8,12.8,20.5v169.1L158,300.8z M259.2,228.8
				c7.6-3.7,12.8-11.5,12.8-20.5c0-3.6-0.8-6.9-2.3-9.9l81.6-97.5v170.2c-7.6,3.7-12.8,11.5-12.8,20.5c0,3.3,0.7,6.4,1.9,9.2
				l-81.2,97.1V228.8L259.2,228.8z M382.2,300.8c1.2-2.8,1.9-5.9,1.9-9.2c0-9-5.2-16.8-12.8-20.5V100.8l81.6,97.5
				c-1.5,3-2.3,6.4-2.3,9.9c0,9,5.2,16.8,12.8,20.5v169.1L382.2,300.8z M361.3,52.8c-12.6,0-22.8,10.2-22.8,22.8
				c0,2.7,0.5,5.3,1.4,7.7L254.1,186c-1.6-0.3-3.2-0.5-4.8-0.5s-3.3,0.2-4.8,0.5L158.6,83.4c0.9-2.4,1.4-5,1.4-7.7
				c0-12.6-10.2-22.8-22.8-22.8s-22.8,10.2-22.8,22.8c0,2.7,0.5,5.3,1.4,7.7L29.8,186c-1.6-0.3-3.2-0.5-4.8-0.5
				c-12.6,0-22.8,10.2-22.8,22.8c0,9,5.2,16.8,12.8,20.5v173.5c-7.6,3.7-12.8,11.5-12.8,20.5c0,12.6,10.2,22.8,22.8,22.8
				c12.6,0,22.8-10.2,22.8-22.8c0-2.6-0.5-5.2-1.3-7.5l84.9-101.6c1.8,0.5,3.7,0.7,5.6,0.7c1.9,0,3.8-0.3,5.6-0.7l84.9,101.6
				c-0.8,2.4-1.3,4.9-1.3,7.5c0,12.6,10.2,22.8,22.8,22.8s22.8-10.2,22.8-22.8c0-2.6-0.5-5.2-1.3-7.5l84.9-101.6
				c1.8,0.5,3.7,0.7,5.6,0.7c1.9,0,3.8-0.3,5.6-0.7l84.9,101.6c-0.8,2.4-1.3,4.9-1.3,7.5c0,12.6,10.2,22.8,22.8,22.8
				c12.6,0,22.8-10.2,22.8-22.8c0-9-5.2-16.8-12.8-20.5V228.8c7.6-3.7,12.8-11.5,12.8-20.5c0-12.6-10.2-22.8-22.8-22.8
				c-1.7,0-3.3,0.2-4.8,0.5L382.8,83.4c0.9-2.4,1.4-5,1.4-7.7C384.2,63.1,373.9,52.8,361.3,52.8z"/>
		</defs>
		<clipPath id="SVGID_2_">
			<use xlink:href="#SVGID_1_"  overflow="visible"/>
		</clipPath>
		
			<linearGradient id="SVGID_3_" gradientUnits="userSpaceOnUse" x1="0.8207" y1="206.6922" x2="2.1546" y2="206.6922" gradientTransform="matrix(551.9724 -520.474 520.474 551.9724 -108108.9141 -113103.4531)">
			<stop  offset="0" style="stop-color:#70C6AA"/>
			<stop  offset="1" style="stop-color:#3C70B7"/>
		</linearGradient>
		<polygon clip-path="url(#SVGID_2_)" fill="url(#SVGID_3_)" points="-193.9,237.7 263.7,-193.8 692.3,260.7 234.7,692.2 		"/>
	</g>
</g>
</svg>
